<?xml version="1.0" encoding="UTF-8" standalone="no"?>
<!DOCTYPE svg PUBLIC "-//W3C//DTD SVG 1.1//EN"
 "http://www.w3.org/Graphics/SVG/1.1/DTD/svg11.dtd">
<!-- Generated by graphviz version 2.43.0 (0)
 -->
<!-- Title: %3 Pages: 1 -->
<svg width="3116pt" height="238pt"
 viewBox="0.00 0.00 3115.50 237.74" xmlns="http://www.w3.org/2000/svg" xmlns:xlink="http://www.w3.org/1999/xlink">
<g id="graph0" class="graph" transform="scale(1 1) rotate(0) translate(36 201.74)">
<title>%3</title>
<polygon fill="dimgray" stroke="transparent" points="-36,36 -36,-201.74 3079.5,-201.74 3079.5,36 -36,36"/>
<text text-anchor="middle" x="1521.75" y="-150.54" font-family="Helvetica,sans-Serif" font-size="14.00">Sweep&#39;s Plan &amp; Progress</text>
<!-- start -->
<g id="node1" class="node">
<title>start</title>
</g>
<!-- 1e666314&#45;33a3&#45;449d&#45;b482&#45;02d06ef33121 -->
<g id="node3" class="node">
<title>1e666314&#45;33a3&#45;449d&#45;b482&#45;02d06ef33121</title>
<ellipse fill="#0ee832" stroke="black" cx="276" cy="-99.87" rx="221.15" ry="26.74"/>
<text text-anchor="middle" x="276" y="-103.67" font-family="Helvetica,sans-Serif" font-size="14.00">✓ Modify</text>
<text text-anchor="middle" x="276" y="-88.67" font-family="Helvetica,sans-Serif" font-size="14.00">backend/zeno_backend/database/select.py</text>
</g>
<!-- start&#45;&gt;1e666314&#45;33a3&#45;449d&#45;b482&#45;02d06ef33121 -->
<g id="edge12" class="edge">
<title>start&#45;&gt;1e666314&#45;33a3&#45;449d&#45;b482&#45;02d06ef33121</title>
<path fill="none" stroke="black" d="M3.78,-99.87C7.34,-99.87 22.73,-99.87 44.54,-99.87"/>
<polygon fill="black" stroke="black" points="44.62,-103.37 54.62,-99.87 44.62,-96.37 44.62,-103.37"/>
<text text-anchor="middle" x="29.09" y="-106.67" font-family="Helvetica,sans-Serif" font-size="14.00">Start</text>
</g>
<!-- end -->
<g id="node2" class="node">
<title>end</title>
</g>
<!-- d922b5c5&#45;32af&#45;4313&#45;90f0&#45;e0078e431eeb -->
<g id="node4" class="node">
<title>d922b5c5&#45;32af&#45;4313&#45;90f0&#45;e0078e431eeb</title>
<ellipse fill="white" stroke="black" cx="782" cy="-99.87" rx="226.96" ry="26.74"/>
<text text-anchor="middle" x="782" y="-103.67" font-family="Helvetica,sans-Serif" font-size="14.00">▶ Modify</text>
<text text-anchor="middle" x="782" y="-88.67" font-family="Helvetica,sans-Serif" font-size="14.00">backend/zeno_backend/database/update.py</text>
</g>
<!-- 1e666314&#45;33a3&#45;449d&#45;b482&#45;02d06ef33121&#45;&gt;d922b5c5&#45;32af&#45;4313&#45;90f0&#45;e0078e431eeb -->
<g id="edge2" class="edge">
<title>1e666314&#45;33a3&#45;449d&#45;b482&#45;02d06ef33121&#45;&gt;d922b5c5&#45;32af&#45;4313&#45;90f0&#45;e0078e431eeb</title>
<path fill="none" stroke="black" d="M497.38,-99.87C513.11,-99.87 528.84,-99.87 544.57,-99.87"/>
<polygon fill="black" stroke="black" points="544.91,-103.37 554.91,-99.87 544.91,-96.37 544.91,-103.37"/>
</g>
<!-- 168311af&#45;e8a7&#45;4d63&#45;b640&#45;6b794c689824 -->
<g id="node9" class="node">
<title>168311af&#45;e8a7&#45;4d63&#45;b640&#45;6b794c689824</title>
<polygon fill="yellow" stroke="black" points="508,-36 0,-36 0,0 508,0 508,-36"/>
<text text-anchor="middle" x="254" y="-14.3" font-family="Helvetica,sans-Serif" font-size="14.00">⋯ Run GitHub Actions for `backend/zeno_backend/database/select.py`</text>
</g>
<!-- 1e666314&#45;33a3&#45;449d&#45;b482&#45;02d06ef33121&#45;&gt;168311af&#45;e8a7&#45;4d63&#45;b640&#45;6b794c689824 -->
<g id="edge1" class="edge">
<title>1e666314&#45;33a3&#45;449d&#45;b482&#45;02d06ef33121&#45;&gt;168311af&#45;e8a7&#45;4d63&#45;b640&#45;6b794c689824</title>
<path fill="none" stroke="black" stroke-dasharray="5,2" d="M268.8,-72.72C266.42,-64.08 263.77,-54.47 261.38,-45.79"/>
<polygon fill="black" stroke="black" points="264.75,-44.86 258.72,-36.15 258,-46.72 264.75,-44.86"/>
</g>
<!-- b9aba38b&#45;4a78&#45;410a&#45;a7ad&#45;c6c17f7b742d -->
<g id="node5" class="node">
<title>b9aba38b&#45;4a78&#45;410a&#45;a7ad&#45;c6c17f7b742d</title>
<ellipse fill="white" stroke="black" cx="1297" cy="-99.87" rx="205.12" ry="26.74"/>
<text text-anchor="middle" x="1297" y="-103.67" font-family="Helvetica,sans-Serif" font-size="14.00">▶ Modify</text>
<text text-anchor="middle" x="1297" y="-88.67" font-family="Helvetica,sans-Serif" font-size="14.00">backend/zeno_backend/classes/slice.py</text>
</g>
<!-- d922b5c5&#45;32af&#45;4313&#45;90f0&#45;e0078e431eeb&#45;&gt;b9aba38b&#45;4a78&#45;410a&#45;a7ad&#45;c6c17f7b742d -->
<g id="edge4" class="edge">
<title>d922b5c5&#45;32af&#45;4313&#45;90f0&#45;e0078e431eeb&#45;&gt;b9aba38b&#45;4a78&#45;410a&#45;a7ad&#45;c6c17f7b742d</title>
<path fill="none" stroke="black" d="M1009.07,-99.87C1033.29,-99.87 1057.51,-99.87 1081.73,-99.87"/>
<polygon fill="black" stroke="black" points="1081.74,-103.37 1091.74,-99.87 1081.74,-96.37 1081.74,-103.37"/>
</g>
<!-- 76062dd9&#45;45ab&#45;45ed&#45;982d&#45;81cc2cc9ea37 -->
<g id="node10" class="node">
<title>76062dd9&#45;45ab&#45;45ed&#45;982d&#45;81cc2cc9ea37</title>
<polygon fill="white" stroke="black" points="1038,-36 526,-36 526,0 1038,0 1038,-36"/>
<text text-anchor="middle" x="782" y="-14.3" font-family="Helvetica,sans-Serif" font-size="14.00">▶ Run GitHub Actions for `backend/zeno_backend/database/update.py`</text>
</g>
<!-- d922b5c5&#45;32af&#45;4313&#45;90f0&#45;e0078e431eeb&#45;&gt;76062dd9&#45;45ab&#45;45ed&#45;982d&#45;81cc2cc9ea37 -->
<g id="edge3" class="edge">
<title>d922b5c5&#45;32af&#45;4313&#45;90f0&#45;e0078e431eeb&#45;&gt;76062dd9&#45;45ab&#45;45ed&#45;982d&#45;81cc2cc9ea37</title>
<path fill="none" stroke="black" stroke-dasharray="5,2" d="M782,-72.72C782,-64.27 782,-54.89 782,-46.36"/>
<polygon fill="black" stroke="black" points="785.5,-46.15 782,-36.15 778.5,-46.15 785.5,-46.15"/>
</g>
<!-- d84e2cac&#45;fba6&#45;4711&#45;9d0c&#45;a9ab49297dba -->
<g id="node6" class="node">
<title>d84e2cac&#45;fba6&#45;4711&#45;9d0c&#45;a9ab49297dba</title>
<ellipse fill="white" stroke="black" cx="1792" cy="-99.87" rx="198.89" ry="26.74"/>
<text text-anchor="middle" x="1792" y="-103.67" font-family="Helvetica,sans-Serif" font-size="14.00">▶ Modify</text>
<text text-anchor="middle" x="1792" y="-88.67" font-family="Helvetica,sans-Serif" font-size="14.00">backend/zeno_backend/classes/tag.py</text>
</g>
<!-- b9aba38b&#45;4a78&#45;410a&#45;a7ad&#45;c6c17f7b742d&#45;&gt;d84e2cac&#45;fba6&#45;4711&#45;9d0c&#45;a9ab49297dba -->
<g id="edge6" class="edge">
<title>b9aba38b&#45;4a78&#45;410a&#45;a7ad&#45;c6c17f7b742d&#45;&gt;d84e2cac&#45;fba6&#45;4711&#45;9d0c&#45;a9ab49297dba</title>
<path fill="none" stroke="black" d="M1502.44,-99.87C1529.27,-99.87 1556.1,-99.87 1582.93,-99.87"/>
<polygon fill="black" stroke="black" points="1583.21,-103.37 1593.21,-99.87 1583.21,-96.37 1583.21,-103.37"/>
</g>
<!-- fba22930&#45;61c9&#45;4e86&#45;b444&#45;ce6524c0a8d8 -->
<g id="node11" class="node">
<title>fba22930&#45;61c9&#45;4e86&#45;b444&#45;ce6524c0a8d8</title>
<polygon fill="white" stroke="black" points="1537.5,-36 1056.5,-36 1056.5,0 1537.5,0 1537.5,-36"/>
<text text-anchor="middle" x="1297" y="-14.3" font-family="Helvetica,sans-Serif" font-size="14.00">▶ Run GitHub Actions for `backend/zeno_backend/classes/slice.py`</text>
</g>
<!-- b9aba38b&#45;4a78&#45;410a&#45;a7ad&#45;c6c17f7b742d&#45;&gt;fba22930&#45;61c9&#45;4e86&#45;b444&#45;ce6524c0a8d8 -->
<g id="edge5" class="edge">
<title>b9aba38b&#45;4a78&#45;410a&#45;a7ad&#45;c6c17f7b742d&#45;&gt;fba22930&#45;61c9&#45;4e86&#45;b444&#45;ce6524c0a8d8</title>
<path fill="none" stroke="black" stroke-dasharray="5,2" d="M1297,-72.72C1297,-64.27 1297,-54.89 1297,-46.36"/>
<polygon fill="black" stroke="black" points="1300.5,-46.15 1297,-36.15 1293.5,-46.15 1300.5,-46.15"/>
</g>
<!-- 144a2ebc&#45;eea7&#45;480a&#45;8337&#45;b79857054f3c -->
<g id="node7" class="node">
<title>144a2ebc&#45;eea7&#45;480a&#45;8337&#45;b79857054f3c</title>
<ellipse fill="white" stroke="black" cx="2290" cy="-99.87" rx="208.69" ry="26.74"/>
<text text-anchor="middle" x="2290" y="-103.67" font-family="Helvetica,sans-Serif" font-size="14.00">▶ Modify</text>
<text text-anchor="middle" x="2290" y="-88.67" font-family="Helvetica,sans-Serif" font-size="14.00">backend/zeno_backend/classes/chart.py</text>
</g>
<!-- d84e2cac&#45;fba6&#45;4711&#45;9d0c&#45;a9ab49297dba&#45;&gt;144a2ebc&#45;eea7&#45;480a&#45;8337&#45;b79857054f3c -->
<g id="edge8" class="edge">
<title>d84e2cac&#45;fba6&#45;4711&#45;9d0c&#45;a9ab49297dba&#45;&gt;144a2ebc&#45;eea7&#45;480a&#45;8337&#45;b79857054f3c</title>
<path fill="none" stroke="black" d="M1990.91,-99.87C2017.58,-99.87 2044.26,-99.87 2070.94,-99.87"/>
<polygon fill="black" stroke="black" points="2071.16,-103.37 2081.16,-99.87 2071.16,-96.37 2071.16,-103.37"/>
</g>
<!-- 4f3cba70&#45;3e91&#45;49b9&#45;b1e8&#45;1f143693a125 -->
<g id="node12" class="node">
<title>4f3cba70&#45;3e91&#45;49b9&#45;b1e8&#45;1f143693a125</title>
<polygon fill="white" stroke="black" points="2028.5,-36 1555.5,-36 1555.5,0 2028.5,0 2028.5,-36"/>
<text text-anchor="middle" x="1792" y="-14.3" font-family="Helvetica,sans-Serif" font-size="14.00">▶ Run GitHub Actions for `backend/zeno_backend/classes/tag.py`</text>
</g>
<!-- d84e2cac&#45;fba6&#45;4711&#45;9d0c&#45;a9ab49297dba&#45;&gt;4f3cba70&#45;3e91&#45;49b9&#45;b1e8&#45;1f143693a125 -->
<g id="edge7" class="edge">
<title>d84e2cac&#45;fba6&#45;4711&#45;9d0c&#45;a9ab49297dba&#45;&gt;4f3cba70&#45;3e91&#45;49b9&#45;b1e8&#45;1f143693a125</title>
<path fill="none" stroke="black" stroke-dasharray="5,2" d="M1792,-72.72C1792,-64.27 1792,-54.89 1792,-46.36"/>
<polygon fill="black" stroke="black" points="1795.5,-46.15 1792,-36.15 1788.5,-46.15 1795.5,-46.15"/>
</g>
<!-- ffd06dfa&#45;8a50&#45;42e8&#45;8c71&#45;88b255e20466 -->
<g id="node8" class="node">
<title>ffd06dfa&#45;8a50&#45;42e8&#45;8c71&#45;88b255e20466</title>
<ellipse fill="white" stroke="black" cx="2772" cy="-99.87" rx="212.68" ry="26.74"/>
<text text-anchor="middle" x="2772" y="-103.67" font-family="Helvetica,sans-Serif" font-size="14.00">▶ Modify</text>
<text text-anchor="middle" x="2772" y="-88.67" font-family="Helvetica,sans-Serif" font-size="14.00">backend/zeno_backend/classes/report.py</text>
</g>
<!-- 144a2ebc&#45;eea7&#45;480a&#45;8337&#45;b79857054f3c&#45;&gt;ffd06dfa&#45;8a50&#45;42e8&#45;8c71&#45;88b255e20466 -->
<g id="edge10" class="edge">
<title>144a2ebc&#45;eea7&#45;480a&#45;8337&#45;b79857054f3c&#45;&gt;ffd06dfa&#45;8a50&#45;42e8&#45;8c71&#45;88b255e20466</title>
<path fill="none" stroke="black" d="M2498.99,-99.87C2515.55,-99.87 2532.11,-99.87 2548.67,-99.87"/>
<polygon fill="black" stroke="black" points="2548.98,-103.37 2558.98,-99.87 2548.98,-96.37 2548.98,-103.37"/>
</g>
<!-- 1c3667e9&#45;5089&#45;4b74&#45;bc9e&#45;c4df12534532 -->
<g id="node13" class="node">
<title>1c3667e9&#45;5089&#45;4b74&#45;bc9e&#45;c4df12534532</title>
<polygon fill="white" stroke="black" points="2533,-36 2047,-36 2047,0 2533,0 2533,-36"/>
<text text-anchor="middle" x="2290" y="-14.3" font-family="Helvetica,sans-Serif" font-size="14.00">▶ Run GitHub Actions for `backend/zeno_backend/classes/chart.py`</text>
</g>
<!-- 144a2ebc&#45;eea7&#45;480a&#45;8337&#45;b79857054f3c&#45;&gt;1c3667e9&#45;5089&#45;4b74&#45;bc9e&#45;c4df12534532 -->
<g id="edge9" class="edge">
<title>144a2ebc&#45;eea7&#45;480a&#45;8337&#45;b79857054f3c&#45;&gt;1c3667e9&#45;5089&#45;4b74&#45;bc9e&#45;c4df12534532</title>
<path fill="none" stroke="black" stroke-dasharray="5,2" d="M2290,-72.72C2290,-64.27 2290,-54.89 2290,-46.36"/>
<polygon fill="black" stroke="black" points="2293.5,-46.15 2290,-36.15 2286.5,-46.15 2293.5,-46.15"/>
</g>
<!-- ffd06dfa&#45;8a50&#45;42e8&#45;8c71&#45;88b255e20466&#45;&gt;end -->
<g id="edge13" class="edge">
<title>ffd06dfa&#45;8a50&#45;42e8&#45;8c71&#45;88b255e20466&#45;&gt;end</title>
<path fill="none" stroke="black" d="M2984.86,-99.87C3005.05,-99.87 3021.79,-99.87 3032.04,-99.87"/>
<polygon fill="black" stroke="black" points="3032.37,-103.37 3042.37,-99.87 3032.37,-96.37 3032.37,-103.37"/>
<text text-anchor="middle" x="3013.67" y="-106.67" font-family="Helvetica,sans-Serif" font-size="14.00">Finish</text>
</g>
<!-- 8b30630d&#45;46d2&#45;4903&#45;aa87&#45;5c213c3a8738 -->
<g id="node14" class="node">
<title>8b30630d&#45;46d2&#45;4903&#45;aa87&#45;5c213c3a8738</title>
<polygon fill="white" stroke="black" points="3043,-36 2551,-36 2551,0 3043,0 3043,-36"/>
<text text-anchor="middle" x="2797" y="-14.3" font-family="Helvetica,sans-Serif" font-size="14.00">▶ Run GitHub Actions for `backend/zeno_backend/classes/report.py`</text>
</g>
<!-- ffd06dfa&#45;8a50&#45;42e8&#45;8c71&#45;88b255e20466&#45;&gt;8b30630d&#45;46d2&#45;4903&#45;aa87&#45;5c213c3a8738 -->
<g id="edge11" class="edge">
<title>ffd06dfa&#45;8a50&#45;42e8&#45;8c71&#45;88b255e20466&#45;&gt;8b30630d&#45;46d2&#45;4903&#45;aa87&#45;5c213c3a8738</title>
<path fill="none" stroke="black" stroke-dasharray="5,2" d="M2780.19,-72.72C2782.89,-64.08 2785.9,-54.47 2788.61,-45.79"/>
<polygon fill="black" stroke="black" points="2791.99,-46.74 2791.63,-36.15 2785.31,-44.64 2791.99,-46.74"/>
</g>
</g>
</svg>
