<?xml version="1.0" encoding="UTF-8" standalone="no"?>
<!DOCTYPE svg PUBLIC "-//W3C//DTD SVG 1.1//EN"
 "http://www.w3.org/Graphics/SVG/1.1/DTD/svg11.dtd">
<!-- Generated by graphviz version 2.43.0 (0)
 -->
<!-- Title: %3 Pages: 1 -->
<svg width="3112pt" height="238pt"
 viewBox="0.00 0.00 3112.00 237.74" xmlns="http://www.w3.org/2000/svg" xmlns:xlink="http://www.w3.org/1999/xlink">
<g id="graph0" class="graph" transform="scale(1 1) rotate(0) translate(36 201.74)">
<title>%3</title>
<polygon fill="dimgray" stroke="transparent" points="-36,36 -36,-201.74 3076,-201.74 3076,36 -36,36"/>
<text text-anchor="middle" x="1520" y="-150.54" font-family="Helvetica,sans-Serif" font-size="14.00">Sweep&#39;s Plan &amp; Progress</text>
<!-- start -->
<g id="node1" class="node">
<title>start</title>
</g>
<!-- 1e666314&#45;33a3&#45;449d&#45;b482&#45;02d06ef33121 -->
<g id="node3" class="node">
<title>1e666314&#45;33a3&#45;449d&#45;b482&#45;02d06ef33121</title>
<ellipse fill="yellow" stroke="black" cx="273.5" cy="-99.87" rx="221.15" ry="26.74"/>
<text text-anchor="middle" x="273.5" y="-103.67" font-family="Helvetica,sans-Serif" font-size="14.00">⋯ Modify</text>
<text text-anchor="middle" x="273.5" y="-88.67" font-family="Helvetica,sans-Serif" font-size="14.00">backend/zeno_backend/database/select.py</text>
</g>
<!-- start&#45;&gt;1e666314&#45;33a3&#45;449d&#45;b482&#45;02d06ef33121 -->
<g id="edge12" class="edge">
<title>start&#45;&gt;1e666314&#45;33a3&#45;449d&#45;b482&#45;02d06ef33121</title>
<path fill="none" stroke="black" d="M1.28,-99.87C4.84,-99.87 20.23,-99.87 42.04,-99.87"/>
<polygon fill="black" stroke="black" points="42.12,-103.37 52.12,-99.87 42.12,-96.37 42.12,-103.37"/>
<text text-anchor="middle" x="26.59" y="-106.67" font-family="Helvetica,sans-Serif" font-size="14.00">Start</text>
</g>
<!-- end -->
<g id="node2" class="node">
<title>end</title>
</g>
<!-- d922b5c5&#45;32af&#45;4313&#45;90f0&#45;e0078e431eeb -->
<g id="node4" class="node">
<title>d922b5c5&#45;32af&#45;4313&#45;90f0&#45;e0078e431eeb</title>
<ellipse fill="white" stroke="black" cx="778.5" cy="-99.87" rx="226.96" ry="26.74"/>
<text text-anchor="middle" x="778.5" y="-103.67" font-family="Helvetica,sans-Serif" font-size="14.00">▶ Modify</text>
<text text-anchor="middle" x="778.5" y="-88.67" font-family="Helvetica,sans-Serif" font-size="14.00">backend/zeno_backend/database/update.py</text>
</g>
<!-- 1e666314&#45;33a3&#45;449d&#45;b482&#45;02d06ef33121&#45;&gt;d922b5c5&#45;32af&#45;4313&#45;90f0&#45;e0078e431eeb -->
<g id="edge2" class="edge">
<title>1e666314&#45;33a3&#45;449d&#45;b482&#45;02d06ef33121&#45;&gt;d922b5c5&#45;32af&#45;4313&#45;90f0&#45;e0078e431eeb</title>
<path fill="none" stroke="black" d="M494.93,-99.87C510.38,-99.87 525.82,-99.87 541.27,-99.87"/>
<polygon fill="black" stroke="black" points="541.42,-103.37 551.42,-99.87 541.42,-96.37 541.42,-103.37"/>
</g>
<!-- 168311af&#45;e8a7&#45;4d63&#45;b640&#45;6b794c689824 -->
<g id="node9" class="node">
<title>168311af&#45;e8a7&#45;4d63&#45;b640&#45;6b794c689824</title>
<polygon fill="white" stroke="black" points="504.5,-36 0.5,-36 0.5,0 504.5,0 504.5,-36"/>
<text text-anchor="middle" x="252.5" y="-14.3" font-family="Helvetica,sans-Serif" font-size="14.00">▶ Run GitHub Actions for `backend/zeno_backend/database/select.py`</text>
</g>
<!-- 1e666314&#45;33a3&#45;449d&#45;b482&#45;02d06ef33121&#45;&gt;168311af&#45;e8a7&#45;4d63&#45;b640&#45;6b794c689824 -->
<g id="edge1" class="edge">
<title>1e666314&#45;33a3&#45;449d&#45;b482&#45;02d06ef33121&#45;&gt;168311af&#45;e8a7&#45;4d63&#45;b640&#45;6b794c689824</title>
<path fill="none" stroke="black" stroke-dasharray="5,2" d="M266.62,-72.72C264.38,-64.18 261.88,-54.68 259.62,-46.08"/>
<polygon fill="black" stroke="black" points="262.94,-44.93 257.01,-36.15 256.17,-46.71 262.94,-44.93"/>
</g>
<!-- b9aba38b&#45;4a78&#45;410a&#45;a7ad&#45;c6c17f7b742d -->
<g id="node5" class="node">
<title>b9aba38b&#45;4a78&#45;410a&#45;a7ad&#45;c6c17f7b742d</title>
<ellipse fill="white" stroke="black" cx="1293.5" cy="-99.87" rx="205.12" ry="26.74"/>
<text text-anchor="middle" x="1293.5" y="-103.67" font-family="Helvetica,sans-Serif" font-size="14.00">▶ Modify</text>
<text text-anchor="middle" x="1293.5" y="-88.67" font-family="Helvetica,sans-Serif" font-size="14.00">backend/zeno_backend/classes/slice.py</text>
</g>
<!-- d922b5c5&#45;32af&#45;4313&#45;90f0&#45;e0078e431eeb&#45;&gt;b9aba38b&#45;4a78&#45;410a&#45;a7ad&#45;c6c17f7b742d -->
<g id="edge4" class="edge">
<title>d922b5c5&#45;32af&#45;4313&#45;90f0&#45;e0078e431eeb&#45;&gt;b9aba38b&#45;4a78&#45;410a&#45;a7ad&#45;c6c17f7b742d</title>
<path fill="none" stroke="black" d="M1005.57,-99.87C1029.79,-99.87 1054.01,-99.87 1078.23,-99.87"/>
<polygon fill="black" stroke="black" points="1078.24,-103.37 1088.24,-99.87 1078.24,-96.37 1078.24,-103.37"/>
</g>
<!-- 76062dd9&#45;45ab&#45;45ed&#45;982d&#45;81cc2cc9ea37 -->
<g id="node10" class="node">
<title>76062dd9&#45;45ab&#45;45ed&#45;982d&#45;81cc2cc9ea37</title>
<polygon fill="white" stroke="black" points="1034.5,-36 522.5,-36 522.5,0 1034.5,0 1034.5,-36"/>
<text text-anchor="middle" x="778.5" y="-14.3" font-family="Helvetica,sans-Serif" font-size="14.00">▶ Run GitHub Actions for `backend/zeno_backend/database/update.py`</text>
</g>
<!-- d922b5c5&#45;32af&#45;4313&#45;90f0&#45;e0078e431eeb&#45;&gt;76062dd9&#45;45ab&#45;45ed&#45;982d&#45;81cc2cc9ea37 -->
<g id="edge3" class="edge">
<title>d922b5c5&#45;32af&#45;4313&#45;90f0&#45;e0078e431eeb&#45;&gt;76062dd9&#45;45ab&#45;45ed&#45;982d&#45;81cc2cc9ea37</title>
<path fill="none" stroke="black" stroke-dasharray="5,2" d="M778.5,-72.72C778.5,-64.27 778.5,-54.89 778.5,-46.36"/>
<polygon fill="black" stroke="black" points="782,-46.15 778.5,-36.15 775,-46.15 782,-46.15"/>
</g>
<!-- d84e2cac&#45;fba6&#45;4711&#45;9d0c&#45;a9ab49297dba -->
<g id="node6" class="node">
<title>d84e2cac&#45;fba6&#45;4711&#45;9d0c&#45;a9ab49297dba</title>
<ellipse fill="white" stroke="black" cx="1788.5" cy="-99.87" rx="198.89" ry="26.74"/>
<text text-anchor="middle" x="1788.5" y="-103.67" font-family="Helvetica,sans-Serif" font-size="14.00">▶ Modify</text>
<text text-anchor="middle" x="1788.5" y="-88.67" font-family="Helvetica,sans-Serif" font-size="14.00">backend/zeno_backend/classes/tag.py</text>
</g>
<!-- b9aba38b&#45;4a78&#45;410a&#45;a7ad&#45;c6c17f7b742d&#45;&gt;d84e2cac&#45;fba6&#45;4711&#45;9d0c&#45;a9ab49297dba -->
<g id="edge6" class="edge">
<title>b9aba38b&#45;4a78&#45;410a&#45;a7ad&#45;c6c17f7b742d&#45;&gt;d84e2cac&#45;fba6&#45;4711&#45;9d0c&#45;a9ab49297dba</title>
<path fill="none" stroke="black" d="M1498.94,-99.87C1525.77,-99.87 1552.6,-99.87 1579.43,-99.87"/>
<polygon fill="black" stroke="black" points="1579.71,-103.37 1589.71,-99.87 1579.71,-96.37 1579.71,-103.37"/>
</g>
<!-- fba22930&#45;61c9&#45;4e86&#45;b444&#45;ce6524c0a8d8 -->
<g id="node11" class="node">
<title>fba22930&#45;61c9&#45;4e86&#45;b444&#45;ce6524c0a8d8</title>
<polygon fill="white" stroke="black" points="1534,-36 1053,-36 1053,0 1534,0 1534,-36"/>
<text text-anchor="middle" x="1293.5" y="-14.3" font-family="Helvetica,sans-Serif" font-size="14.00">▶ Run GitHub Actions for `backend/zeno_backend/classes/slice.py`</text>
</g>
<!-- b9aba38b&#45;4a78&#45;410a&#45;a7ad&#45;c6c17f7b742d&#45;&gt;fba22930&#45;61c9&#45;4e86&#45;b444&#45;ce6524c0a8d8 -->
<g id="edge5" class="edge">
<title>b9aba38b&#45;4a78&#45;410a&#45;a7ad&#45;c6c17f7b742d&#45;&gt;fba22930&#45;61c9&#45;4e86&#45;b444&#45;ce6524c0a8d8</title>
<path fill="none" stroke="black" stroke-dasharray="5,2" d="M1293.5,-72.72C1293.5,-64.27 1293.5,-54.89 1293.5,-46.36"/>
<polygon fill="black" stroke="black" points="1297,-46.15 1293.5,-36.15 1290,-46.15 1297,-46.15"/>
</g>
<!-- 144a2ebc&#45;eea7&#45;480a&#45;8337&#45;b79857054f3c -->
<g id="node7" class="node">
<title>144a2ebc&#45;eea7&#45;480a&#45;8337&#45;b79857054f3c</title>
<ellipse fill="white" stroke="black" cx="2286.5" cy="-99.87" rx="208.69" ry="26.74"/>
<text text-anchor="middle" x="2286.5" y="-103.67" font-family="Helvetica,sans-Serif" font-size="14.00">▶ Modify</text>
<text text-anchor="middle" x="2286.5" y="-88.67" font-family="Helvetica,sans-Serif" font-size="14.00">backend/zeno_backend/classes/chart.py</text>
</g>
<!-- d84e2cac&#45;fba6&#45;4711&#45;9d0c&#45;a9ab49297dba&#45;&gt;144a2ebc&#45;eea7&#45;480a&#45;8337&#45;b79857054f3c -->
<g id="edge8" class="edge">
<title>d84e2cac&#45;fba6&#45;4711&#45;9d0c&#45;a9ab49297dba&#45;&gt;144a2ebc&#45;eea7&#45;480a&#45;8337&#45;b79857054f3c</title>
<path fill="none" stroke="black" d="M1987.41,-99.87C2014.08,-99.87 2040.76,-99.87 2067.44,-99.87"/>
<polygon fill="black" stroke="black" points="2067.66,-103.37 2077.66,-99.87 2067.66,-96.37 2067.66,-103.37"/>
</g>
<!-- 4f3cba70&#45;3e91&#45;49b9&#45;b1e8&#45;1f143693a125 -->
<g id="node12" class="node">
<title>4f3cba70&#45;3e91&#45;49b9&#45;b1e8&#45;1f143693a125</title>
<polygon fill="white" stroke="black" points="2025,-36 1552,-36 1552,0 2025,0 2025,-36"/>
<text text-anchor="middle" x="1788.5" y="-14.3" font-family="Helvetica,sans-Serif" font-size="14.00">▶ Run GitHub Actions for `backend/zeno_backend/classes/tag.py`</text>
</g>
<!-- d84e2cac&#45;fba6&#45;4711&#45;9d0c&#45;a9ab49297dba&#45;&gt;4f3cba70&#45;3e91&#45;49b9&#45;b1e8&#45;1f143693a125 -->
<g id="edge7" class="edge">
<title>d84e2cac&#45;fba6&#45;4711&#45;9d0c&#45;a9ab49297dba&#45;&gt;4f3cba70&#45;3e91&#45;49b9&#45;b1e8&#45;1f143693a125</title>
<path fill="none" stroke="black" stroke-dasharray="5,2" d="M1788.5,-72.72C1788.5,-64.27 1788.5,-54.89 1788.5,-46.36"/>
<polygon fill="black" stroke="black" points="1792,-46.15 1788.5,-36.15 1785,-46.15 1792,-46.15"/>
</g>
<!-- ffd06dfa&#45;8a50&#45;42e8&#45;8c71&#45;88b255e20466 -->
<g id="node8" class="node">
<title>ffd06dfa&#45;8a50&#45;42e8&#45;8c71&#45;88b255e20466</title>
<ellipse fill="white" stroke="black" cx="2768.5" cy="-99.87" rx="212.68" ry="26.74"/>
<text text-anchor="middle" x="2768.5" y="-103.67" font-family="Helvetica,sans-Serif" font-size="14.00">▶ Modify</text>
<text text-anchor="middle" x="2768.5" y="-88.67" font-family="Helvetica,sans-Serif" font-size="14.00">backend/zeno_backend/classes/report.py</text>
</g>
<!-- 144a2ebc&#45;eea7&#45;480a&#45;8337&#45;b79857054f3c&#45;&gt;ffd06dfa&#45;8a50&#45;42e8&#45;8c71&#45;88b255e20466 -->
<g id="edge10" class="edge">
<title>144a2ebc&#45;eea7&#45;480a&#45;8337&#45;b79857054f3c&#45;&gt;ffd06dfa&#45;8a50&#45;42e8&#45;8c71&#45;88b255e20466</title>
<path fill="none" stroke="black" d="M2495.49,-99.87C2512.05,-99.87 2528.61,-99.87 2545.17,-99.87"/>
<polygon fill="black" stroke="black" points="2545.48,-103.37 2555.48,-99.87 2545.48,-96.37 2545.48,-103.37"/>
</g>
<!-- 1c3667e9&#45;5089&#45;4b74&#45;bc9e&#45;c4df12534532 -->
<g id="node13" class="node">
<title>1c3667e9&#45;5089&#45;4b74&#45;bc9e&#45;c4df12534532</title>
<polygon fill="white" stroke="black" points="2529.5,-36 2043.5,-36 2043.5,0 2529.5,0 2529.5,-36"/>
<text text-anchor="middle" x="2286.5" y="-14.3" font-family="Helvetica,sans-Serif" font-size="14.00">▶ Run GitHub Actions for `backend/zeno_backend/classes/chart.py`</text>
</g>
<!-- 144a2ebc&#45;eea7&#45;480a&#45;8337&#45;b79857054f3c&#45;&gt;1c3667e9&#45;5089&#45;4b74&#45;bc9e&#45;c4df12534532 -->
<g id="edge9" class="edge">
<title>144a2ebc&#45;eea7&#45;480a&#45;8337&#45;b79857054f3c&#45;&gt;1c3667e9&#45;5089&#45;4b74&#45;bc9e&#45;c4df12534532</title>
<path fill="none" stroke="black" stroke-dasharray="5,2" d="M2286.5,-72.72C2286.5,-64.27 2286.5,-54.89 2286.5,-46.36"/>
<polygon fill="black" stroke="black" points="2290,-46.15 2286.5,-36.15 2283,-46.15 2290,-46.15"/>
</g>
<!-- ffd06dfa&#45;8a50&#45;42e8&#45;8c71&#45;88b255e20466&#45;&gt;end -->
<g id="edge13" class="edge">
<title>ffd06dfa&#45;8a50&#45;42e8&#45;8c71&#45;88b255e20466&#45;&gt;end</title>
<path fill="none" stroke="black" d="M2981.36,-99.87C3001.55,-99.87 3018.29,-99.87 3028.54,-99.87"/>
<polygon fill="black" stroke="black" points="3028.87,-103.37 3038.87,-99.87 3028.87,-96.37 3028.87,-103.37"/>
<text text-anchor="middle" x="3010.17" y="-106.67" font-family="Helvetica,sans-Serif" font-size="14.00">Finish</text>
</g>
<!-- 8b30630d&#45;46d2&#45;4903&#45;aa87&#45;5c213c3a8738 -->
<g id="node14" class="node">
<title>8b30630d&#45;46d2&#45;4903&#45;aa87&#45;5c213c3a8738</title>
<polygon fill="white" stroke="black" points="3039.5,-36 2547.5,-36 2547.5,0 3039.5,0 3039.5,-36"/>
<text text-anchor="middle" x="2793.5" y="-14.3" font-family="Helvetica,sans-Serif" font-size="14.00">▶ Run GitHub Actions for `backend/zeno_backend/classes/report.py`</text>
</g>
<!-- ffd06dfa&#45;8a50&#45;42e8&#45;8c71&#45;88b255e20466&#45;&gt;8b30630d&#45;46d2&#45;4903&#45;aa87&#45;5c213c3a8738 -->
<g id="edge11" class="edge">
<title>ffd06dfa&#45;8a50&#45;42e8&#45;8c71&#45;88b255e20466&#45;&gt;8b30630d&#45;46d2&#45;4903&#45;aa87&#45;5c213c3a8738</title>
<path fill="none" stroke="black" stroke-dasharray="5,2" d="M2776.69,-72.72C2779.39,-64.08 2782.4,-54.47 2785.11,-45.79"/>
<polygon fill="black" stroke="black" points="2788.49,-46.74 2788.13,-36.15 2781.81,-44.64 2788.49,-46.74"/>
</g>
</g>
</svg>
