<?xml version="1.0" encoding="UTF-8" standalone="no"?>
<!DOCTYPE svg PUBLIC "-//W3C//DTD SVG 1.1//EN"
 "http://www.w3.org/Graphics/SVG/1.1/DTD/svg11.dtd">
<!-- Generated by graphviz version 2.43.0 (0)
 -->
<!-- Title: %3 Pages: 1 -->
<svg width="3118pt" height="238pt"
 viewBox="0.00 0.00 3117.50 237.74" xmlns="http://www.w3.org/2000/svg" xmlns:xlink="http://www.w3.org/1999/xlink">
<g id="graph0" class="graph" transform="scale(1 1) rotate(0) translate(36 201.74)">
<title>%3</title>
<polygon fill="dimgray" stroke="transparent" points="-36,36 -36,-201.74 3081.5,-201.74 3081.5,36 -36,36"/>
<text text-anchor="middle" x="1522.75" y="-150.54" font-family="Helvetica,sans-Serif" font-size="14.00">Sweep&#39;s Plan &amp; Progress</text>
<!-- start -->
<g id="node1" class="node">
<title>start</title>
</g>
<!-- 1e666314&#45;33a3&#45;449d&#45;b482&#45;02d06ef33121 -->
<g id="node3" class="node">
<title>1e666314&#45;33a3&#45;449d&#45;b482&#45;02d06ef33121</title>
<ellipse fill="#0ee832" stroke="black" cx="275" cy="-99.87" rx="221.15" ry="26.74"/>
<text text-anchor="middle" x="275" y="-103.67" font-family="Helvetica,sans-Serif" font-size="14.00">✓ Modify</text>
<text text-anchor="middle" x="275" y="-88.67" font-family="Helvetica,sans-Serif" font-size="14.00">backend/zeno_backend/database/select.py</text>
</g>
<!-- start&#45;&gt;1e666314&#45;33a3&#45;449d&#45;b482&#45;02d06ef33121 -->
<g id="edge12" class="edge">
<title>start&#45;&gt;1e666314&#45;33a3&#45;449d&#45;b482&#45;02d06ef33121</title>
<path fill="none" stroke="black" d="M2.78,-99.87C6.34,-99.87 21.73,-99.87 43.54,-99.87"/>
<polygon fill="black" stroke="black" points="43.62,-103.37 53.62,-99.87 43.62,-96.37 43.62,-103.37"/>
<text text-anchor="middle" x="28.09" y="-106.67" font-family="Helvetica,sans-Serif" font-size="14.00">Start</text>
</g>
<!-- end -->
<g id="node2" class="node">
<title>end</title>
</g>
<!-- d922b5c5&#45;32af&#45;4313&#45;90f0&#45;e0078e431eeb -->
<g id="node4" class="node">
<title>d922b5c5&#45;32af&#45;4313&#45;90f0&#45;e0078e431eeb</title>
<ellipse fill="#0ee832" stroke="black" cx="782" cy="-99.87" rx="226.96" ry="26.74"/>
<text text-anchor="middle" x="782" y="-103.67" font-family="Helvetica,sans-Serif" font-size="14.00">✓ Modify</text>
<text text-anchor="middle" x="782" y="-88.67" font-family="Helvetica,sans-Serif" font-size="14.00">backend/zeno_backend/database/update.py</text>
</g>
<!-- 1e666314&#45;33a3&#45;449d&#45;b482&#45;02d06ef33121&#45;&gt;d922b5c5&#45;32af&#45;4313&#45;90f0&#45;e0078e431eeb -->
<g id="edge2" class="edge">
<title>1e666314&#45;33a3&#45;449d&#45;b482&#45;02d06ef33121&#45;&gt;d922b5c5&#45;32af&#45;4313&#45;90f0&#45;e0078e431eeb</title>
<path fill="none" stroke="black" d="M496.81,-99.87C512.65,-99.87 528.49,-99.87 544.33,-99.87"/>
<polygon fill="black" stroke="black" points="544.74,-103.37 554.74,-99.87 544.74,-96.37 544.74,-103.37"/>
</g>
<!-- 168311af&#45;e8a7&#45;4d63&#45;b640&#45;6b794c689824 -->
<g id="node9" class="node">
<title>168311af&#45;e8a7&#45;4d63&#45;b640&#45;6b794c689824</title>
<polygon fill="#0ee832" stroke="black" points="506,-36 0,-36 0,0 506,0 506,-36"/>
<text text-anchor="middle" x="253" y="-14.3" font-family="Helvetica,sans-Serif" font-size="14.00">✓ Run GitHub Actions for `backend/zeno_backend/database/select.py`</text>
</g>
<!-- 1e666314&#45;33a3&#45;449d&#45;b482&#45;02d06ef33121&#45;&gt;168311af&#45;e8a7&#45;4d63&#45;b640&#45;6b794c689824 -->
<g id="edge1" class="edge">
<title>1e666314&#45;33a3&#45;449d&#45;b482&#45;02d06ef33121&#45;&gt;168311af&#45;e8a7&#45;4d63&#45;b640&#45;6b794c689824</title>
<path fill="none" stroke="black" stroke-dasharray="5,2" d="M267.8,-72.72C265.42,-64.08 262.77,-54.47 260.38,-45.79"/>
<polygon fill="black" stroke="black" points="263.75,-44.86 257.72,-36.15 257,-46.72 263.75,-44.86"/>
</g>
<!-- b9aba38b&#45;4a78&#45;410a&#45;a7ad&#45;c6c17f7b742d -->
<g id="node5" class="node">
<title>b9aba38b&#45;4a78&#45;410a&#45;a7ad&#45;c6c17f7b742d</title>
<ellipse fill="white" stroke="black" cx="1299" cy="-99.87" rx="205.12" ry="26.74"/>
<text text-anchor="middle" x="1299" y="-103.67" font-family="Helvetica,sans-Serif" font-size="14.00">▶ Modify</text>
<text text-anchor="middle" x="1299" y="-88.67" font-family="Helvetica,sans-Serif" font-size="14.00">backend/zeno_backend/classes/slice.py</text>
</g>
<!-- d922b5c5&#45;32af&#45;4313&#45;90f0&#45;e0078e431eeb&#45;&gt;b9aba38b&#45;4a78&#45;410a&#45;a7ad&#45;c6c17f7b742d -->
<g id="edge4" class="edge">
<title>d922b5c5&#45;32af&#45;4313&#45;90f0&#45;e0078e431eeb&#45;&gt;b9aba38b&#45;4a78&#45;410a&#45;a7ad&#45;c6c17f7b742d</title>
<path fill="none" stroke="black" d="M1009.2,-99.87C1033.99,-99.87 1058.78,-99.87 1083.57,-99.87"/>
<polygon fill="black" stroke="black" points="1083.82,-103.37 1093.82,-99.87 1083.82,-96.37 1083.82,-103.37"/>
</g>
<!-- 76062dd9&#45;45ab&#45;45ed&#45;982d&#45;81cc2cc9ea37 -->
<g id="node10" class="node">
<title>76062dd9&#45;45ab&#45;45ed&#45;982d&#45;81cc2cc9ea37</title>
<polygon fill="yellow" stroke="black" points="1040,-36 524,-36 524,0 1040,0 1040,-36"/>
<text text-anchor="middle" x="782" y="-14.3" font-family="Helvetica,sans-Serif" font-size="14.00">⋯ Run GitHub Actions for `backend/zeno_backend/database/update.py`</text>
</g>
<!-- d922b5c5&#45;32af&#45;4313&#45;90f0&#45;e0078e431eeb&#45;&gt;76062dd9&#45;45ab&#45;45ed&#45;982d&#45;81cc2cc9ea37 -->
<g id="edge3" class="edge">
<title>d922b5c5&#45;32af&#45;4313&#45;90f0&#45;e0078e431eeb&#45;&gt;76062dd9&#45;45ab&#45;45ed&#45;982d&#45;81cc2cc9ea37</title>
<path fill="none" stroke="black" stroke-dasharray="5,2" d="M782,-72.72C782,-64.27 782,-54.89 782,-46.36"/>
<polygon fill="black" stroke="black" points="785.5,-46.15 782,-36.15 778.5,-46.15 785.5,-46.15"/>
</g>
<!-- d84e2cac&#45;fba6&#45;4711&#45;9d0c&#45;a9ab49297dba -->
<g id="node6" class="node">
<title>d84e2cac&#45;fba6&#45;4711&#45;9d0c&#45;a9ab49297dba</title>
<ellipse fill="white" stroke="black" cx="1794" cy="-99.87" rx="198.89" ry="26.74"/>
<text text-anchor="middle" x="1794" y="-103.67" font-family="Helvetica,sans-Serif" font-size="14.00">▶ Modify</text>
<text text-anchor="middle" x="1794" y="-88.67" font-family="Helvetica,sans-Serif" font-size="14.00">backend/zeno_backend/classes/tag.py</text>
</g>
<!-- b9aba38b&#45;4a78&#45;410a&#45;a7ad&#45;c6c17f7b742d&#45;&gt;d84e2cac&#45;fba6&#45;4711&#45;9d0c&#45;a9ab49297dba -->
<g id="edge6" class="edge">
<title>b9aba38b&#45;4a78&#45;410a&#45;a7ad&#45;c6c17f7b742d&#45;&gt;d84e2cac&#45;fba6&#45;4711&#45;9d0c&#45;a9ab49297dba</title>
<path fill="none" stroke="black" d="M1504.44,-99.87C1531.27,-99.87 1558.1,-99.87 1584.93,-99.87"/>
<polygon fill="black" stroke="black" points="1585.21,-103.37 1595.21,-99.87 1585.21,-96.37 1585.21,-103.37"/>
</g>
<!-- fba22930&#45;61c9&#45;4e86&#45;b444&#45;ce6524c0a8d8 -->
<g id="node11" class="node">
<title>fba22930&#45;61c9&#45;4e86&#45;b444&#45;ce6524c0a8d8</title>
<polygon fill="white" stroke="black" points="1539.5,-36 1058.5,-36 1058.5,0 1539.5,0 1539.5,-36"/>
<text text-anchor="middle" x="1299" y="-14.3" font-family="Helvetica,sans-Serif" font-size="14.00">▶ Run GitHub Actions for `backend/zeno_backend/classes/slice.py`</text>
</g>
<!-- b9aba38b&#45;4a78&#45;410a&#45;a7ad&#45;c6c17f7b742d&#45;&gt;fba22930&#45;61c9&#45;4e86&#45;b444&#45;ce6524c0a8d8 -->
<g id="edge5" class="edge">
<title>b9aba38b&#45;4a78&#45;410a&#45;a7ad&#45;c6c17f7b742d&#45;&gt;fba22930&#45;61c9&#45;4e86&#45;b444&#45;ce6524c0a8d8</title>
<path fill="none" stroke="black" stroke-dasharray="5,2" d="M1299,-72.72C1299,-64.27 1299,-54.89 1299,-46.36"/>
<polygon fill="black" stroke="black" points="1302.5,-46.15 1299,-36.15 1295.5,-46.15 1302.5,-46.15"/>
</g>
<!-- 144a2ebc&#45;eea7&#45;480a&#45;8337&#45;b79857054f3c -->
<g id="node7" class="node">
<title>144a2ebc&#45;eea7&#45;480a&#45;8337&#45;b79857054f3c</title>
<ellipse fill="white" stroke="black" cx="2292" cy="-99.87" rx="208.69" ry="26.74"/>
<text text-anchor="middle" x="2292" y="-103.67" font-family="Helvetica,sans-Serif" font-size="14.00">▶ Modify</text>
<text text-anchor="middle" x="2292" y="-88.67" font-family="Helvetica,sans-Serif" font-size="14.00">backend/zeno_backend/classes/chart.py</text>
</g>
<!-- d84e2cac&#45;fba6&#45;4711&#45;9d0c&#45;a9ab49297dba&#45;&gt;144a2ebc&#45;eea7&#45;480a&#45;8337&#45;b79857054f3c -->
<g id="edge8" class="edge">
<title>d84e2cac&#45;fba6&#45;4711&#45;9d0c&#45;a9ab49297dba&#45;&gt;144a2ebc&#45;eea7&#45;480a&#45;8337&#45;b79857054f3c</title>
<path fill="none" stroke="black" d="M1992.91,-99.87C2019.58,-99.87 2046.26,-99.87 2072.94,-99.87"/>
<polygon fill="black" stroke="black" points="2073.16,-103.37 2083.16,-99.87 2073.16,-96.37 2073.16,-103.37"/>
</g>
<!-- 4f3cba70&#45;3e91&#45;49b9&#45;b1e8&#45;1f143693a125 -->
<g id="node12" class="node">
<title>4f3cba70&#45;3e91&#45;49b9&#45;b1e8&#45;1f143693a125</title>
<polygon fill="white" stroke="black" points="2030.5,-36 1557.5,-36 1557.5,0 2030.5,0 2030.5,-36"/>
<text text-anchor="middle" x="1794" y="-14.3" font-family="Helvetica,sans-Serif" font-size="14.00">▶ Run GitHub Actions for `backend/zeno_backend/classes/tag.py`</text>
</g>
<!-- d84e2cac&#45;fba6&#45;4711&#45;9d0c&#45;a9ab49297dba&#45;&gt;4f3cba70&#45;3e91&#45;49b9&#45;b1e8&#45;1f143693a125 -->
<g id="edge7" class="edge">
<title>d84e2cac&#45;fba6&#45;4711&#45;9d0c&#45;a9ab49297dba&#45;&gt;4f3cba70&#45;3e91&#45;49b9&#45;b1e8&#45;1f143693a125</title>
<path fill="none" stroke="black" stroke-dasharray="5,2" d="M1794,-72.72C1794,-64.27 1794,-54.89 1794,-46.36"/>
<polygon fill="black" stroke="black" points="1797.5,-46.15 1794,-36.15 1790.5,-46.15 1797.5,-46.15"/>
</g>
<!-- ffd06dfa&#45;8a50&#45;42e8&#45;8c71&#45;88b255e20466 -->
<g id="node8" class="node">
<title>ffd06dfa&#45;8a50&#45;42e8&#45;8c71&#45;88b255e20466</title>
<ellipse fill="white" stroke="black" cx="2774" cy="-99.87" rx="212.68" ry="26.74"/>
<text text-anchor="middle" x="2774" y="-103.67" font-family="Helvetica,sans-Serif" font-size="14.00">▶ Modify</text>
<text text-anchor="middle" x="2774" y="-88.67" font-family="Helvetica,sans-Serif" font-size="14.00">backend/zeno_backend/classes/report.py</text>
</g>
<!-- 144a2ebc&#45;eea7&#45;480a&#45;8337&#45;b79857054f3c&#45;&gt;ffd06dfa&#45;8a50&#45;42e8&#45;8c71&#45;88b255e20466 -->
<g id="edge10" class="edge">
<title>144a2ebc&#45;eea7&#45;480a&#45;8337&#45;b79857054f3c&#45;&gt;ffd06dfa&#45;8a50&#45;42e8&#45;8c71&#45;88b255e20466</title>
<path fill="none" stroke="black" d="M2500.99,-99.87C2517.55,-99.87 2534.11,-99.87 2550.67,-99.87"/>
<polygon fill="black" stroke="black" points="2550.98,-103.37 2560.98,-99.87 2550.98,-96.37 2550.98,-103.37"/>
</g>
<!-- 1c3667e9&#45;5089&#45;4b74&#45;bc9e&#45;c4df12534532 -->
<g id="node13" class="node">
<title>1c3667e9&#45;5089&#45;4b74&#45;bc9e&#45;c4df12534532</title>
<polygon fill="white" stroke="black" points="2535,-36 2049,-36 2049,0 2535,0 2535,-36"/>
<text text-anchor="middle" x="2292" y="-14.3" font-family="Helvetica,sans-Serif" font-size="14.00">▶ Run GitHub Actions for `backend/zeno_backend/classes/chart.py`</text>
</g>
<!-- 144a2ebc&#45;eea7&#45;480a&#45;8337&#45;b79857054f3c&#45;&gt;1c3667e9&#45;5089&#45;4b74&#45;bc9e&#45;c4df12534532 -->
<g id="edge9" class="edge">
<title>144a2ebc&#45;eea7&#45;480a&#45;8337&#45;b79857054f3c&#45;&gt;1c3667e9&#45;5089&#45;4b74&#45;bc9e&#45;c4df12534532</title>
<path fill="none" stroke="black" stroke-dasharray="5,2" d="M2292,-72.72C2292,-64.27 2292,-54.89 2292,-46.36"/>
<polygon fill="black" stroke="black" points="2295.5,-46.15 2292,-36.15 2288.5,-46.15 2295.5,-46.15"/>
</g>
<!-- ffd06dfa&#45;8a50&#45;42e8&#45;8c71&#45;88b255e20466&#45;&gt;end -->
<g id="edge13" class="edge">
<title>ffd06dfa&#45;8a50&#45;42e8&#45;8c71&#45;88b255e20466&#45;&gt;end</title>
<path fill="none" stroke="black" d="M2986.86,-99.87C3007.05,-99.87 3023.79,-99.87 3034.04,-99.87"/>
<polygon fill="black" stroke="black" points="3034.37,-103.37 3044.37,-99.87 3034.37,-96.37 3034.37,-103.37"/>
<text text-anchor="middle" x="3015.67" y="-106.67" font-family="Helvetica,sans-Serif" font-size="14.00">Finish</text>
</g>
<!-- 8b30630d&#45;46d2&#45;4903&#45;aa87&#45;5c213c3a8738 -->
<g id="node14" class="node">
<title>8b30630d&#45;46d2&#45;4903&#45;aa87&#45;5c213c3a8738</title>
<polygon fill="white" stroke="black" points="3045,-36 2553,-36 2553,0 3045,0 3045,-36"/>
<text text-anchor="middle" x="2799" y="-14.3" font-family="Helvetica,sans-Serif" font-size="14.00">▶ Run GitHub Actions for `backend/zeno_backend/classes/report.py`</text>
</g>
<!-- ffd06dfa&#45;8a50&#45;42e8&#45;8c71&#45;88b255e20466&#45;&gt;8b30630d&#45;46d2&#45;4903&#45;aa87&#45;5c213c3a8738 -->
<g id="edge11" class="edge">
<title>ffd06dfa&#45;8a50&#45;42e8&#45;8c71&#45;88b255e20466&#45;&gt;8b30630d&#45;46d2&#45;4903&#45;aa87&#45;5c213c3a8738</title>
<path fill="none" stroke="black" stroke-dasharray="5,2" d="M2782.19,-72.72C2784.89,-64.08 2787.9,-54.47 2790.61,-45.79"/>
<polygon fill="black" stroke="black" points="2793.99,-46.74 2793.63,-36.15 2787.31,-44.64 2793.99,-46.74"/>
</g>
</g>
</svg>
