<svg width="17" height="18" viewBox="0 0 17 18" fill="none" xmlns="http://www.w3.org/2000/svg">
<path d="M16.2526 8.85596L8.37328 8.85596L8.37328 0.976624L12.3428 4.94619L16.2526 8.85596Z" fill="#612593"/>
<path d="M8.02046 8.87912L4.0808 4.93945L8.02046 0.999786L8.02046 8.87912Z" fill="#612593" fill-opacity="0.8"/>
<path d="M7.55005 8.87939L3.85735 8.87939L3.85735 5.18669L7.55005 8.87939Z" fill="#612593" fill-opacity="0.6"/>
<path d="M3.10469 8.87939L1.64642 8.87939L1.64642 7.37409L3.10469 8.87939Z" fill="#6A1B9A" fill-opacity="0.4"/>
<path d="M1.38771 8.87922L0.769714 8.26123L1.393 7.63794L1.38771 8.87922Z" fill="#6A1B9A" fill-opacity="0.3"/>
<path d="M1.0349 8.85596L0.588013 8.85596L0.588013 8.43259L1.0349 8.85596Z" fill="#6A1B9A" fill-opacity="0.2"/>
<path d="M0.423356 8.85556L0.258713 8.69092L0.423356 8.52628L0.423356 8.85556Z" fill="#612593" fill-opacity="0.1"/>
<path d="M0.053936 8.86068L0.152893 8.76172L0.25185 8.86068H0.053936Z" fill="#612593" fill-opacity="0.1"/>
<path d="M3.53094 8.87653L1.84923 7.19482L3.53982 5.50423L3.53094 8.87653Z" fill="#612593" fill-opacity="0.5"/>
<path d="M0.149429 9.2085L8.02876 9.2085L8.02876 17.0878L4.05919 13.1183L0.149429 9.2085Z" fill="#612593"/>
<path d="M8.37804 9.59658L12.1136 13.3252L8.37804 17.0608L8.37804 9.59658Z" fill="#612593" fill-opacity="0.8"/>
<path d="M8.39677 9.2085L12.4188 9.2085L12.4188 13.0423L8.39677 9.2085Z" fill="#612593" fill-opacity="0.6"/>
<path d="M13.2974 9.18506L14.7556 9.18506L14.7556 10.6904L13.2974 9.18506Z" fill="#6A1B9A" fill-opacity="0.4"/>
<path d="M15.0143 9.18523L15.6323 9.80322L15.009 10.4265L15.0143 9.18523Z" fill="#6A1B9A" fill-opacity="0.3"/>
<path d="M15.3671 9.2085L15.814 9.2085L15.814 9.63186L15.3671 9.2085Z" fill="#6A1B9A" fill-opacity="0.2"/>
<path d="M15.9787 9.20889L16.1433 9.37354L15.9787 9.53818L15.9787 9.20889Z" fill="#612593" fill-opacity="0.1"/>
<path d="M16.3481 9.20378L16.2491 9.30273L16.1502 9.20378H16.3481Z" fill="#612593" fill-opacity="0.1"/>
<path d="M12.8711 9.18792L14.5528 10.8696L12.8622 12.5602L12.8711 9.18792Z" fill="#612593" fill-opacity="0.5"/>
</svg>
